<?xml version="1.0" encoding="utf-8"?>
<!-- Generator: Adobe Illustrator 16.2.1, SVG Export Plug-In . SVG Version: 6.00 Build 0)  -->
<!DOCTYPE svg PUBLIC "-//W3C//DTD SVG 1.1//EN" "http://www.w3.org/Graphics/SVG/1.1/DTD/svg11.dtd">
<svg version="1.1" id="Layer_1" xmlns="http://www.w3.org/2000/svg" xmlns:xlink="http://www.w3.org/1999/xlink" x="0px" y="0px"
	 width="90px" height="60px" viewBox="0 0 90 60" enable-background="new 0 0 90 60" xml:space="preserve">
<path id="f" fill="#CFCFCF" d="M46.641,25v-9.124h3.063l0.458-3.556h-3.521v-2.267c0-1.032,0.284-1.732,1.762-1.732l1.883-0.001
	V5.142C49.961,5.096,48.842,5,47.541,5c-2.714,0-4.571,1.655-4.571,4.702v2.618h-3.067v3.556h3.067V25H46.641z"/>
<path fill="#CFCFCF" d="M27.12,7.556c-0.885,0.394-1.834,0.656-2.83,0.776c1.02-0.61,1.799-1.576,2.168-2.725
	c-0.951,0.563-2.004,0.973-3.129,1.195c-0.897-0.958-2.178-1.556-3.593-1.556c-2.72,0-4.925,2.206-4.925,4.925
	c0,0.386,0.046,0.762,0.128,1.12c-4.09-0.202-7.72-2.164-10.148-5.144C4.368,6.875,4.123,7.722,4.123,8.624
	c0,1.707,0.871,3.217,2.191,4.097c-0.807-0.024-1.565-0.247-2.227-0.614c0,0.019,0,0.039,0,0.062c0,2.385,1.696,4.375,3.95,4.83
	c-0.415,0.11-0.85,0.169-1.3,0.169c-0.316,0-0.624-0.026-0.926-0.089c0.627,1.961,2.447,3.382,4.601,3.418
	c-1.684,1.325-3.808,2.107-6.114,2.107c-0.397,0-0.792-0.023-1.176-0.067c2.179,1.403,4.766,2.216,7.548,2.216
	c9.056,0,14.008-7.505,14.008-14.013c0-0.211-0.003-0.422-0.012-0.633C25.626,9.412,26.458,8.544,27.12,7.556z"/>
<path id="f_1_" fill="#2DB34A" d="M46.641,55v-9.125h3.063l0.458-3.555h-3.521v-2.27c0-1.029,0.284-1.73,1.762-1.73h1.883v-3.178
	C49.961,35.096,48.842,35,47.541,35c-2.714,0-4.571,1.654-4.571,4.701v2.619h-3.067v3.555h3.067V55H46.641z"/>
<path fill="#2DB34A" d="M27.12,37.555c-0.885,0.396-1.834,0.656-2.83,0.777c1.02-0.609,1.799-1.576,2.168-2.725
	c-0.951,0.562-2.004,0.973-3.129,1.193c-0.897-0.959-2.178-1.557-3.593-1.557c-2.72,0-4.925,2.205-4.925,4.926
	c0,0.387,0.046,0.764,0.128,1.119c-4.09-0.201-7.72-2.164-10.148-5.146c-0.422,0.729-0.667,1.574-0.667,2.479
	c0,1.707,0.871,3.219,2.191,4.1c-0.807-0.023-1.565-0.246-2.227-0.613c0,0.02,0,0.039,0,0.062c0,2.386,1.696,4.373,3.95,4.828
	c-0.415,0.11-0.85,0.17-1.3,0.17c-0.316,0-0.624-0.026-0.926-0.09c0.627,1.961,2.447,3.383,4.601,3.418
	c-1.684,1.325-3.808,2.106-6.114,2.106c-0.397,0-0.792-0.022-1.176-0.065c2.179,1.401,4.766,2.215,7.548,2.215
	c9.056,0,14.008-7.504,14.008-14.013c0-0.211-0.003-0.422-0.012-0.633C25.626,39.412,26.458,38.545,27.12,37.555z"/>
<g id="Google">
	<path fill="#CFCFCF" d="M75.376,16.53l-0.998-0.766c-0.304-0.25-0.722-0.578-0.722-1.178c0-0.604,0.418-0.986,0.777-1.343
		c1.164-0.902,2.325-1.865,2.325-3.89c0-2.082-1.327-3.177-1.966-3.697h1.721l1.799-1.116h-5.457c-1.496,0-3.656,0.35-5.238,1.637
		c-1.194,1.013-1.771,2.41-1.771,3.67c0,2.133,1.663,4.301,4.598,4.301c0.275,0,0.58-0.03,0.888-0.058
		c-0.14,0.331-0.274,0.605-0.274,1.071c0,0.845,0.44,1.369,0.832,1.859c-1.248,0.086-3.578,0.22-5.293,1.262
		c-1.637,0.96-2.133,2.355-2.133,3.34c0,2.028,1.939,3.919,5.958,3.919c4.769,0,7.289-2.6,7.289-5.176
		C77.704,18.477,76.596,17.543,75.376,16.53z M71.746,13.379c-2.383,0-3.467-3.038-3.467-4.872c0-0.714,0.141-1.452,0.611-2.028
		c0.441-0.548,1.219-0.903,1.939-0.903c2.303,0,3.492,3.067,3.492,5.039c0,0.497-0.057,1.369-0.693,2
		C73.184,13.056,72.438,13.379,71.746,13.379z M71.773,24.394c-2.963,0-4.875-1.396-4.875-3.342c0-1.946,1.772-2.603,2.381-2.82
		c1.166-0.386,2.658-0.439,2.914-0.439c0.271,0,0.412,0,0.634,0.029c2.108,1.479,3.021,2.217,3.021,3.617
		C75.85,23.132,74.434,24.394,71.773,24.394z"/>
	<polygon fill="#CFCFCF" points="82.673,12.941 82.673,10.203 81.3,10.203 81.3,12.941 78.529,12.941 78.529,14.31 81.3,14.31 
		81.3,17.062 82.673,17.062 82.673,14.31 85.459,14.31 85.459,12.941 	"/>
</g>
<g id="Google_1_">
	<path fill="#2DB34A" d="M75.376,46.529l-0.998-0.766c-0.304-0.25-0.722-0.576-0.722-1.179c0-0.604,0.418-0.983,0.777-1.343
		c1.164-0.903,2.325-1.865,2.325-3.891c0-2.082-1.327-3.178-1.966-3.699h1.721l1.799-1.113h-5.457c-1.496,0-3.656,0.352-5.238,1.638
		c-1.193,1.015-1.771,2.409-1.771,3.671c0,2.133,1.663,4.301,4.598,4.301c0.275,0,0.58-0.029,0.888-0.061
		c-0.14,0.331-0.274,0.605-0.274,1.071c0,0.846,0.44,1.368,0.832,1.856c-1.248,0.088-3.578,0.223-5.293,1.264
		c-1.636,0.961-2.133,2.354-2.133,3.341c0,2.026,1.939,3.919,5.957,3.919c4.768,0,7.289-2.602,7.289-5.176
		C77.703,48.477,76.596,47.543,75.376,46.529z M71.747,43.38c-2.384,0-3.466-3.038-3.466-4.872c0-0.713,0.139-1.451,0.609-2.027
		c0.441-0.547,1.219-0.901,1.94-0.901c2.303,0,3.492,3.065,3.492,5.039c0,0.496-0.056,1.366-0.693,2.001
		C73.184,43.057,72.438,43.38,71.747,43.38z M71.775,54.395c-2.965,0-4.875-1.396-4.875-3.343c0-1.946,1.771-2.603,2.381-2.821
		c1.164-0.385,2.658-0.438,2.912-0.438c0.272,0,0.414,0,0.635,0.027c2.107,1.479,3.02,2.219,3.02,3.619
		C75.85,53.131,74.434,54.395,71.775,54.395z"/>
	<polygon fill="#2DB34A" points="82.672,42.941 82.672,40.203 81.299,40.203 81.299,42.941 78.529,42.941 78.529,44.311 
		81.299,44.311 81.299,47.062 82.672,47.062 82.672,44.311 85.458,44.311 85.458,42.941 	"/>
</g>
</svg>
